<svg height="512pt" viewBox="-92 0 512 512" width="512pt" xmlns="http://www.w3.org/2000/svg"><path d="m325.128906 397.21875c-3.605468-5.460938-9.660156-8.71875-16.203125-8.71875h-106.910156v-31.5c0-8.285156-6.71875-15-15-15h-7.84375v-141.519531c0-8.285157-6.714844-15-15-15-8.28125 0-15 6.714843-15 15v141.519531h-7.839844c-8.285156 0-15 6.714844-15 15v31.5h-106.910156c-6.542969 0-12.597656 3.257812-16.203125 8.71875-3.605469 5.457031-4.222656 12.308594-1.652344 18.324219l7.351563 17.199219c10.40625 24.355468 31.058593 42.125 55.679687 49.195312v15.0625c0 8.285156 6.714844 15 15 15s15-6.714844 15-15v-11.6875h139.152344v11.6875c0 8.285156 6.714844 15 15 15s15-6.714844 15-15v-15.0625c24.621094-7.070312 45.273438-24.839844 55.679688-49.195312l7.351562-17.199219c2.570312-6.015625 1.953125-12.867188-1.652344-18.324219zm-168.796875-25.21875h15.683594v16.5h-15.683594zm135.511719 48.957031c-8.917969 20.871094-29.34375 34.355469-52.042969 34.355469h-151.257812c-22.695313 0-43.121094-13.484375-52.039063-34.355469l-1.050781-2.457031h257.441406zm0 0"/><path d="m104.871094 94.753906h123.105468c2.683594 0 4.949219 1.832032 4.949219 4.003906 0 2.167969-2.265625 4-4.949219 4h-44.042968c-19.273438 0-34.949219 15.253907-34.949219 34v8.71875c0 8.285157 6.714844 15 15 15 8.28125 0 15-6.714843 15-15v-8.71875c0-2.167968 2.265625-4 4.949219-4h44.042968c19.273438 0 34.949219-15.253906 34.949219-34 0-18.75-15.675781-34.003906-34.949219-34.003906h-123.105468c-2.6875 0-4.960938-1.832031-4.960938-4.003906 0-2.167969 2.273438-4 4.960938-4h39.367187c19.269531 0 34.949219-15.253906 34.949219-34.003906v-7.746094c0-8.285156-6.71875-15-15-15-8.285156 0-15 6.714844-15 15v7.746094c0 2.167968-2.269531 4-4.949219 4h-39.367187c-19.277344 0-34.960938 15.253906-34.960938 34.003906s15.683594 34.003906 34.960938 34.003906zm0 0"/></svg>