<svg height="30px" viewBox="0 0 128 128" width="30px" xmlns="http://www.w3.org/2000/svg"><g><path d="m99.4 93.575a12.318 12.318 0 0 0 6.014-12.814c-.845-6.141-4.68-9.29-10.852-8.956a38.457 38.457 0 0 0 -3.349-4.7 6.246 6.246 0 0 0 -1.466-12.315h-11l3.03-14.84a1.75 1.75 0 1 0 -3.429-.7l-3.176 15.54h-9.422v-16.46a1.75 1.75 0 0 0 -3.5 0v16.46h-9.422l-3.173-15.54a1.75 1.75 0 1 0 -3.429.7l3.03 14.84h-11a6.246 6.246 0 0 0 -1.466 12.319 38.374 38.374 0 0 0 -3.416 4.809c-3.443-.416-6.235.124-8.3 1.623-2.087 1.517-3.374 3.946-3.826 7.224a12.361 12.361 0 0 0 7.378 13.5c.171 3.774 1.058 8.214 4.724 11.976a18.555 18.555 0 0 0 2.657 2.229 19.778 19.778 0 0 0 -.051 6.951 12.919 12.919 0 0 1 .161 1.939c-.159 2.082-1.92 2.393-2.955 2.393a2.4 2.4 0 0 1 -2.008-.9 3.1 3.1 0 0 1 .088-2.77 1.75 1.75 0 0 0 -3.242-1.326 6.326 6.326 0 0 0 .246 6.046 5.839 5.839 0 0 0 4.914 2.447c3.6 0 6.188-2.261 6.445-5.629a14.023 14.023 0 0 0 -.178-2.636 19.987 19.987 0 0 1 -.188-4.641c5.779 2.784 13.955 4.156 24.761 4.156s18.982-1.372 24.761-4.156a19.987 19.987 0 0 1 -.188 4.641 14.038 14.038 0 0 0 -.178 2.639c.257 3.365 2.847 5.626 6.445 5.626a5.839 5.839 0 0 0 4.914-2.447 6.326 6.326 0 0 0 .246-6.046 1.75 1.75 0 0 0 -3.24 1.326 3.1 3.1 0 0 1 .088 2.77 2.4 2.4 0 0 1 -2.008.9c-1.035 0-2.8-.311-2.955-2.391a12.922 12.922 0 0 1 .161-1.941 19.778 19.778 0 0 0 -.046-6.954 18.555 18.555 0 0 0 2.657-2.229c3.886-3.993 4.643-8.75 4.743-12.663zm2.547-12.336a8.947 8.947 0 0 1 -2.592 8.031c0-.151-.005-.3-.005-.45a32.169 32.169 0 0 0 -2.932-13.51c3.282.283 5.012 2.181 5.529 5.929zm-66.447-20.199a2.754 2.754 0 0 1 2.75-2.75h51.497a2.75 2.75 0 0 1 0 5.5h-51.494a2.754 2.754 0 0 1 -2.753-2.75zm-10.79 20.2c.317-2.294 1.13-3.931 2.417-4.866a7.1 7.1 0 0 1 4.464-1.088 32.164 32.164 0 0 0 -2.941 13.534c0 .458-.012.952-.025 1.468a8.871 8.871 0 0 1 -3.912-9.049zm39.29 29.76c-14.018 0-23.487-2.424-28.146-7.2-3.2-3.289-3.737-7.233-3.768-10.779 0-.02 0-.04 0-.061-.006-.827.014-1.633.034-2.4.016-.614.031-1.194.031-1.732 0-7.917 3.091-15.155 9.172-21.53h45.355c6.081 6.367 9.172 13.602 9.172 21.522 0 .538.015 1.118.031 1.732.105 4.084.237 9.166-3.735 13.243-4.659 4.781-14.128 7.205-28.146 7.205z"/><path d="m90.057 80.058a1.749 1.749 0 0 0 -1.17 2.181 22.774 22.774 0 0 1 .963 6.581 1.75 1.75 0 0 0 3.5 0 26.236 26.236 0 0 0 -1.113-7.592 1.749 1.749 0 0 0 -2.18-1.17z"/><path d="m77.037 21.618c.3 1.049.589 1.945.845 2.747a15.719 15.719 0 0 1 1.081 5.135 1.75 1.75 0 0 0 3.5 0 18.768 18.768 0 0 0 -1.247-6.2c-.247-.775-.524-1.64-.817-2.655l-.082-.281c-.674-2.32-1.8-6.2-.232-8.892.907-1.553 2.7-2.653 5.315-3.268a1.75 1.75 0 0 0 -.8-3.404c-3.592.845-6.127 2.5-7.537 4.911-2.33 3.99-.938 8.775-.106 11.634z"/><path d="m42.6 8.2c2.62.615 4.408 1.715 5.315 3.268 1.571 2.691.442 6.572-.232 8.892l-.082.281c-.293 1.015-.57 1.88-.817 2.655a18.768 18.768 0 0 0 -1.247 6.2 1.75 1.75 0 1 0 3.5 0 15.719 15.719 0 0 1 1.081-5.135c.256-.8.542-1.7.845-2.747l.08-.277c.832-2.859 2.224-7.644-.106-11.634-1.41-2.411-3.945-4.062-7.537-4.903a1.75 1.75 0 0 0 -.8 3.4z"/><path d="m59.887 20.673c1.215 2.721 2.363 5.29 2.363 8.827a1.75 1.75 0 0 0 3.5 0c0-4.283-1.356-7.318-2.667-10.254-.224-.5-.446-1-.661-1.5-.62-1.455-2.072-4.862-1.029-7.1a5.1 5.1 0 0 1 3.428-2.474 1.75 1.75 0 1 0 -1.021-3.346 8.452 8.452 0 0 0 -5.583 4.342c-1.7 3.651.178 8.065.982 9.95.226.521.457 1.038.688 1.555z"/></g></svg>